<?xml version="1.0" encoding="UTF-8" standalone="no"?>
<!DOCTYPE svg PUBLIC "-//W3C//DTD SVG 1.1//EN" "http://www.w3.org/Graphics/SVG/1.1/DTD/svg11.dtd">
<svg viewBox="0 0 1000 1000" version="1.1" xmlns="http://www.w3.org/2000/svg" fill-rule="evenodd">
	<g>
		<title>64-Chess-Square Cucoloris, by Adam Stanislav</title>
<path d="m0 0h1000v1000h-1000zm100 186v-86h86v86zm0 204v-86h86v86zm0 204v-86h86v86zm0 204v-86h86v86zm102 102v-86h86v86zm0-204v-86h86v86zm0-204v-86h86v86zm0-204v-86h86v86zm102-102v-86h86v86zm0 204v-86h86v86zm0 204v-86h86v86zm0 204v-86h86v86zm102 102v-86h86v86zm0-204v-86h86v86zm0-204v-86h86v86zm0-204v-86h86v86zm102-102v-86h86v86zm0 204v-86h86v86zm0 204v-86h86v86zm0 204v-86h86v86zm102 102v-86h86v86zm0-204v-86h86v86zm0-204v-86h86v86zm0-204v-86h86v86zm102-102v-86h86v86zm0 204v-86h86v86zm0 204v-86h86v86zm0 204v-86h86v86zm102 102v-86h86v86zm0-204v-86h86v86zm0-204v-86h86v86zm0-204v-86h86v86z"/>
	</g>
</svg>
